<?xml version="1.0" encoding="UTF-8"?>
<svg width="415px" height="406px" viewBox="0 0 415 406" version="1.1" xmlns="http://www.w3.org/2000/svg" xmlns:xlink="http://www.w3.org/1999/xlink">
    <title>gibhub-logo</title>
    <g id="gibhub-logo" stroke="none" stroke-width="1" fill="none" fill-rule="evenodd">
        <g id="github-logo" fill="#E91E63" fill-rule="nonzero">
            <path d="M386.764875,103.698457 C368.228838,71.903641 343.085888,46.731641 311.329408,28.1767786 C279.5682,9.6209697 244.894431,0.345431235 207.283519,0.345431235 C169.677335,0.345431235 134.992221,9.62380886 103.237631,28.1767786 C71.4783144,46.7306946 46.3363098,71.903641 27.8002733,103.698457 C9.26707289,135.492326 0,170.211478 0,207.854965 C0,253.073333 13.1779043,293.734848 39.5403303,329.849921 C65.8999203,365.967832 99.9526082,390.960019 141.695558,404.829319 C146.554556,405.732172 150.151538,405.097147 152.490285,402.940331 C154.829977,400.780676 155.998405,398.075902 155.998405,394.837366 C155.998405,394.296979 155.952084,389.435389 155.862278,380.246918 C155.769636,371.058448 155.72615,363.04255 155.72615,356.203012 L149.518166,357.278107 C145.560068,358.003986 140.566834,358.311562 134.538462,358.224494 C128.512927,358.140266 122.257677,357.508079 115.781219,356.332667 C109.301925,355.167664 103.275444,352.46573 97.6970501,348.232541 C92.121492,343.999352 88.1633941,338.458256 85.8237016,331.617772 L83.1247836,325.400009 C81.32582,321.260513 78.4936105,316.662019 74.6243736,311.621562 C70.7551367,306.576373 66.8424146,303.156131 62.8843166,301.355156 L60.9946014,300.000876 C59.7354214,299.100862 58.5669932,298.015357 57.4864806,296.755716 C56.4069134,295.496075 55.598656,294.235487 55.0588724,292.973007 C54.5181435,291.70958 54.9662301,290.673287 56.4078588,289.86034 C57.8494875,289.047394 60.4548178,288.652751 64.2351936,288.652751 L69.631139,289.460019 C73.2300114,290.182112 77.6815718,292.338928 82.991492,295.943716 C88.2985763,299.545664 92.6612756,304.228387 96.0805353,309.989991 C100.221082,317.377487 105.20959,323.006597 111.060239,326.880159 C116.906162,330.75372 122.800296,332.687189 128.73697,332.687189 C134.673645,332.687189 139.801116,332.236709 144.121276,331.34048 C148.436708,330.43952 152.485558,329.08524 156.265934,327.285212 C157.885285,315.211207 162.294305,305.935669 169.489214,299.451972 C159.234271,298.373091 150.014465,296.748145 141.825068,294.587543 C133.640399,292.424103 125.182528,288.913007 116.45713,284.044793 C107.727005,279.183203 100.484829,273.1462 94.728713,265.944196 C88.9716515,258.738406 84.2468907,249.278322 80.5610478,237.572462 C76.8733144,225.861869 75.0289749,212.353142 75.0289749,197.042494 C75.0289749,175.242471 82.1378588,156.691394 96.3527904,141.378853 C89.6938838,124.989324 90.3225285,106.616168 98.240615,86.2612774 C103.458838,84.6382238 111.197312,85.8562238 121.452255,89.9077063 C131.709089,93.9610816 139.218793,97.4333753 143.988929,100.312284 C148.759066,103.190247 152.581036,105.629086 155.460513,107.607035 C172.197585,102.925259 189.469715,100.583897 207.281629,100.583897 C225.093542,100.583897 242.369453,102.925259 259.107472,107.607035 L269.36336,101.125231 C276.376765,96.8002424 284.658804,92.8367739 294.189624,89.2338788 C303.726116,85.6328765 311.018394,84.6410629 316.058895,86.2641166 C324.152813,106.619953 324.8741,124.992163 318.213303,141.381692 C332.427289,156.694233 339.539009,175.250042 339.539009,197.045333 C339.539009,212.355981 337.688052,225.907296 334.005991,237.707795 C330.319203,249.510186 325.553793,258.960807 319.70787,266.079529 C313.85533,273.197305 306.566834,279.186988 297.841435,284.047632 C289.114146,288.912061 280.65344,292.423156 272.46877,294.586597 C264.280319,296.750037 255.060513,298.37593 244.805569,299.456704 C254.158667,307.559669 258.836162,320.350089 258.836162,337.822284 L258.836162,394.829795 C258.836162,398.068331 259.961105,400.772159 262.212882,402.93276 C264.461822,405.089576 268.013428,405.724601 272.872426,404.820802 C314.621048,390.953394 348.673736,365.960261 375.03238,329.84235 C401.388189,293.727277 414.57082,253.065762 414.57082,207.847394 C414.561367,170.208639 405.289567,135.492326 386.764875,103.698457 Z" id="Path"></path>
        </g>
    </g>
</svg>