<svg height='100px' width='100px'  fill="#e91e63" xmlns:x="http://ns.adobe.com/Extensibility/1.0/" xmlns:i="http://ns.adobe.com/AdobeIllustrator/10.0/" xmlns:graph="http://ns.adobe.com/Graphs/1.0/" xmlns="http://www.w3.org/2000/svg" xmlns:xlink="http://www.w3.org/1999/xlink" version="1.1" x="0px" y="0px" viewBox="0 0 100 100" style="enable-background:new 0 0 100 100;" xml:space="preserve"><g><g i:extraneous="self"><g><path d="M5273.1,2400.1v-2c0-2.8-5-4-9.7-4s-9.7,1.3-9.7,4v2c0,1.8,0.7,3.6,2,4.9l5,4.9c0.3,0.3,0.4,0.6,0.4,1v6.4     c0,0.4,0.2,0.7,0.6,0.8l2.9,0.9c0.5,0.1,1-0.2,1-0.8v-7.2c0-0.4,0.2-0.7,0.4-1l5.1-5C5272.4,2403.7,5273.1,2401.9,5273.1,2400.1z      M5263.4,2400c-4.8,0-7.4-1.3-7.5-1.8v0c0.1-0.5,2.7-1.8,7.5-1.8c4.8,0,7.3,1.3,7.5,1.8C5270.7,2398.7,5268.2,2400,5263.4,2400z"></path><path d="M5268.4,2410.3c-0.6,0-1,0.4-1,1c0,0.6,0.4,1,1,1h4.3c0.6,0,1-0.4,1-1c0-0.6-0.4-1-1-1H5268.4z"></path><path d="M5272.7,2413.7h-4.3c-0.6,0-1,0.4-1,1c0,0.6,0.4,1,1,1h4.3c0.6,0,1-0.4,1-1C5273.7,2414.1,5273.3,2413.7,5272.7,2413.7z"></path><path d="M5272.7,2417h-4.3c-0.6,0-1,0.4-1,1c0,0.6,0.4,1,1,1h4.3c0.6,0,1-0.4,1-1C5273.7,2417.5,5273.3,2417,5272.7,2417z"></path></g><g><path d="M94.3,15.9H30.6c0.7,1.5,1.2,3.2,1.4,4.9c0.1,0.5,0.1,1-0.1,1.6H91v62.5H21.4l23.5-29.1l7.5,12.3     c0.6,0.9,1.6,1.5,2.6,1.6c1.1,0,2.1-0.5,2.8-1.3l15.8-21.6l0.7,5c0.2,1.6,1.6,2.8,3.2,2.8c0.2,0,0.3,0,0.5,0     c1.8-0.3,3-1.9,2.8-3.7l-1.8-12.9c-0.3-1.8-1.9-3-3.7-2.8L62.4,37c-1.8,0.3-3,1.9-2.8,3.7c0.3,1.8,1.9,3,3.7,2.8l5.2-0.7     l-13,17.9L48,48.5c-0.6-0.9-1.5-1.5-2.6-1.5c-1.1-0.1-2.1,0.4-2.7,1.2L17.5,79.3V58.5c-0.4,0.1-0.8,0.1-1.2,0.1h-4     c-0.5,0-0.8-0.1-1.2-0.1v29.6c0,1.8,1.4,3.2,3.2,3.2h80c1.8,0,3.2-1.4,3.2-3.2v-69C97.5,17.3,96.1,15.9,94.3,15.9z"></path><path d="M12.2,52.2h4c0.8,0,1.4-0.6,1.4-1.4v-3.6c4.5-1,7.8-4.6,8.3-8.9c0.3-2.9-0.6-5.7-2.6-7.9c-1.9-2.1-4.7-3.4-7.6-3.4h-3     c-0.9,0-1.9-0.4-2.5-1.1c-0.6-0.7-0.9-1.6-0.8-2.6c0.2-1.7,1.7-3,3.6-3h3.5c1,0,1.9,0.7,2.1,1.7c0.1,0.6,0.7,1.1,1.4,1.1h4     c0.4,0,0.8-0.2,1.1-0.5c0.3-0.3,0.4-0.7,0.4-1.1c-0.4-4.2-3.6-7.5-7.8-8v-3.4c0-0.8-0.6-1.4-1.4-1.4h-4c-0.8,0-1.4,0.6-1.4,1.4     v3.5c-5.2,1-8.8,5.7-8.3,11.1c0.5,5.2,5.2,9.2,10.6,9.2h2.6c0.9,0,1.9,0.4,2.5,1.1c0.6,0.7,0.9,1.6,0.8,2.6c-0.2,1.7-1.7,3-3.6,3     H12c-1,0-1.9-0.7-2.1-1.7c-0.1-0.6-0.7-1.1-1.4-1.1h-4c-0.4,0-0.8,0.2-1.1,0.5C3.1,38.5,3,38.9,3,39.3c0.4,4.2,3.7,7.4,7.8,8v3.4     C10.8,51.5,11.5,52.2,12.2,52.2z"></path></g></g></g></svg>